<svg width="60" height="60" viewBox="0 0 60 60" fill="none" xmlns="http://www.w3.org/2000/svg">
    <rect x="0.5" y="0.5" width="59" height="59" rx="29.5" stroke="url(#paint0_linear_6_738)" />
    <path d="M41.4661 20.2499C40.9357 20.1971 40.4666 20.6234 40.4183 21.202L40.2905 22.731C38.1228 19.0172 34.3599 16.5349 29.9999 16.5349C25.3095 16.5349 21.176 19.4553 19.124 23.8384C18.8818 24.3558 19.0699 24.9894 19.5442 25.2537C20.0186 25.5179 20.5994 25.3127 20.8416 24.7953C22.5781 21.0859 26.0654 18.6388 29.9999 18.6388C33.586 18.6388 36.8222 20.676 38.6763 23.8675L37.3013 22.7962C36.8679 22.4586 36.2657 22.5681 35.9562 23.0409C35.6467 23.5137 35.7471 24.1706 36.1804 24.5083L40.3498 27.7568C40.9609 28.2321 41.8038 27.797 41.8706 26.9963L42.3388 21.393C42.3872 20.8144 41.9965 20.3026 41.4661 20.2499Z" fill="url(#paint1_linear_6_738)" />
    <path d="M40.4558 34.7462C39.9815 34.482 39.4007 34.6872 39.1585 35.2046C37.4219 38.9141 33.9347 41.3611 30.0002 41.3611C26.4141 41.3611 23.1778 39.3239 21.3238 36.1324L22.6987 37.2037C23.1321 37.5413 23.7343 37.4318 24.0439 36.9591C24.3534 36.4863 24.253 35.8293 23.8196 35.4916L19.6502 32.2431C19.0466 31.7727 18.197 32.1947 18.1295 33.0036L17.6613 38.6069C17.6129 39.1855 18.0037 39.6973 18.534 39.75C19.065 39.8027 19.5336 39.3759 19.5819 38.7979L19.7096 37.2689C21.8773 40.9827 25.6402 43.465 30.0002 43.465C34.6906 43.465 38.8241 40.5447 40.876 36.1616C41.1183 35.6442 40.9301 35.0105 40.4558 34.7462Z" fill="url(#paint2_linear_6_738)" />
    <defs>
        <linearGradient id="paint0_linear_6_738" x1="30" y1="0" x2="30" y2="60" gradientUnits="userSpaceOnUse">
            <stop stop-color="#FCB248" />
            <stop offset="1" stop-color="#DF1F28" />
        </linearGradient>
        <linearGradient id="paint1_linear_6_738" x1="30.6806" y1="16.5349" x2="30.6806" y2="27.9539" gradientUnits="userSpaceOnUse">
            <stop stop-color="#FCB248" />
            <stop offset="1" stop-color="#DF1F28" />
        </linearGradient>
        <linearGradient id="paint2_linear_6_738" x1="29.3195" y1="32.0466" x2="29.3195" y2="43.465" gradientUnits="userSpaceOnUse">
            <stop stop-color="#FCB248" />
            <stop offset="1" stop-color="#DF1F28" />
        </linearGradient>
    </defs>
</svg>
