<svg width="70" height="70" viewBox="0 0 70 70" fill="none" xmlns="http://www.w3.org/2000/svg">
    <rect width="70" height="70" rx="35" fill="white" />
    <path
        d="M48.4819 23.5352C47.8582 23.4731 47.3067 23.9744 47.2499 24.6547L47.0996 26.4524C44.5509 22.0859 40.1266 19.1672 35.0002 19.1672C29.4854 19.1672 24.6253 22.6009 22.2127 27.7544C21.9279 28.3628 22.1491 29.1078 22.7067 29.4185C23.2645 29.7292 23.9473 29.488 24.2321 28.8796C26.2739 24.5181 30.3741 21.641 35.0002 21.641C39.2166 21.641 43.0218 24.0362 45.2017 27.7887L43.5851 26.5291C43.0755 26.1322 42.3674 26.2609 42.0035 26.8168C41.6396 27.3727 41.7576 28.1451 42.2672 28.5421L47.1694 32.3617C47.8879 32.9204 48.8789 32.4089 48.9575 31.4675L49.508 24.8793C49.5649 24.1989 49.1055 23.5972 48.4819 23.5352Z"
        fill="url(#paint0)" />
    <path
        d="M47.2938 40.5814C46.7361 40.2707 46.0532 40.512 45.7684 41.1203C43.7266 45.4818 39.6264 48.3589 35.0003 48.3589C30.7839 48.3589 26.9788 45.9637 24.7988 42.2112L26.4154 43.4708C26.925 43.8677 27.6331 43.739 27.997 43.1831C28.3609 42.6272 28.2429 41.8548 27.7334 41.4578L22.8311 37.6382C22.1214 37.0851 21.1224 37.5813 21.0431 38.5324L20.4925 45.1206C20.4357 45.8009 20.8952 46.4026 21.5187 46.4647C22.1431 46.5266 22.6939 46.0248 22.7507 45.3452L22.901 43.5474C25.4496 47.914 29.8739 50.8327 35.0003 50.8327C40.5152 50.8327 45.3752 47.399 47.7878 42.2455C48.0727 41.6371 47.8514 40.8921 47.2938 40.5814Z"
        fill="url(#paint1)" />
    <defs>
        <linearGradient id="paint0" x1="35.8006" y1="19.1672" x2="35.8006" y2="32.5934" gradientUnits="userSpaceOnUse">
            <stop stop-color="#FCB248" />
            <stop offset="1" stop-color="#DF1F28" />
        </linearGradient>
        <linearGradient id="paint1" x1="34.2" y1="37.4072" x2="34.2" y2="50.8327" gradientUnits="userSpaceOnUse">
            <stop stop-color="#FCB248" />
            <stop offset="1" stop-color="#DF1F28" />
        </linearGradient>
    </defs>
</svg>
