<svg width="70" height="70" viewBox="0 0 70 70" fill="none" xmlns="http://www.w3.org/2000/svg">
    <rect width="70" height="70" rx="35" fill="white" />
    <path
        d="M34.9999 51.396C31.3852 51.3946 27.8723 50.1987 25.0076 47.9944C22.1428 45.79 20.0868 42.7008 19.1593 39.2071C18.2318 35.7135 18.4848 32.0113 19.8789 28.6762C21.2731 25.3412 23.7302 22.5604 26.8682 20.7663C30.0062 18.9721 33.6491 18.2653 37.2304 18.7556C40.8117 19.2459 44.1305 20.9059 46.6708 23.4775C49.2111 26.049 50.8304 29.388 51.2768 32.975C51.7233 36.562 50.9719 40.196 49.1394 43.3118C49.063 43.4304 48.9435 43.5149 48.8061 43.5475C48.6688 43.5801 48.5241 43.5583 48.4025 43.4867C48.2808 43.415 48.1916 43.2991 48.1534 43.1632C48.1153 43.0272 48.1313 42.8818 48.1979 42.7573C50.085 39.5482 50.7374 35.7611 50.0329 32.1055C49.3285 28.4499 47.3155 25.1765 44.371 22.8984C41.4265 20.6203 37.7525 19.4938 34.0371 19.7299C30.3217 19.966 26.8198 21.5484 24.1873 24.1809C21.5549 26.8134 19.9724 30.3153 19.7363 34.0306C19.5002 37.746 20.6267 41.42 22.9048 44.3646C25.1829 47.3091 28.4563 49.3221 32.1119 50.0265C35.7675 50.731 39.5546 50.0786 42.7638 48.1915C42.8257 48.1522 42.8949 48.1257 42.9672 48.1136C43.0395 48.1016 43.1136 48.1042 43.1849 48.1214C43.2562 48.1385 43.3233 48.1698 43.3823 48.2135C43.4412 48.2571 43.4908 48.3122 43.528 48.3753C43.5653 48.4385 43.5894 48.5086 43.5991 48.5813C43.6087 48.654 43.6036 48.7279 43.584 48.7986C43.5645 48.8693 43.531 48.9353 43.4854 48.9928C43.4398 49.0502 43.3831 49.0979 43.3187 49.133C40.7975 50.6165 37.9251 51.3979 34.9999 51.396Z"
        fill="#333333" />
    <path
        d="M29.6166 45.6923C29.5182 45.6923 29.4171 45.689 29.3132 45.6813C27.3285 45.5403 24.7905 44.1504 24.1737 42.3019C23.4159 40.0241 20.2923 36.1782 18.8998 35.4861C18.77 35.4212 18.6713 35.3075 18.6253 35.1699C18.5794 35.0323 18.59 34.8821 18.6548 34.7523C18.7196 34.6225 18.8333 34.5238 18.9709 34.4779C19.1085 34.4319 19.2588 34.4425 19.3885 34.5074C21.1868 35.4068 24.3979 39.5156 25.2126 41.9585C25.6614 43.3068 27.8271 44.4823 29.3903 44.5933C29.9917 44.6387 30.4231 44.5135 30.5467 44.2653C30.802 43.7557 30.5592 42.824 30.3247 41.9241C29.9545 40.5025 29.5357 38.8945 30.6495 37.7808C31.2407 37.2873 31.7336 36.6866 32.1022 36.0104C32.164 35.825 32.293 35.439 31.4417 34.5888C30.8332 33.9803 29.1803 33.5976 27.7238 33.2602C25.7598 32.807 24.5351 32.4866 24.1743 31.7228C24.1052 31.5753 24.0718 31.4136 24.0767 31.2508C24.0817 31.088 24.1248 30.9287 24.2027 30.7856C24.6653 29.8616 25.925 29.5861 27.1437 29.3198C28.685 28.983 29.6948 28.6992 29.6948 27.8589C29.6948 26.1093 26.9436 23.2366 25.8834 22.2776C25.8301 22.2294 25.7869 22.1712 25.7561 22.1063C25.7253 22.0414 25.7076 21.9711 25.704 21.8994C25.6967 21.7545 25.7473 21.6126 25.8446 21.5051C25.9419 21.3975 26.078 21.3329 26.2228 21.3256C26.3677 21.3184 26.5096 21.3689 26.6172 21.4662C27.0442 21.8522 30.7883 25.3115 30.7883 27.8589C30.7883 29.6424 28.8971 30.0557 27.3777 30.3881C26.4548 30.5899 25.4094 30.8184 25.1808 31.2744C25.3405 31.5855 26.9851 31.9661 27.9693 32.1935C29.6489 32.5823 31.3859 32.9847 32.2159 33.8146C32.7867 34.3849 33.503 35.2695 33.141 36.3559C32.9021 37.0733 32.2815 37.6938 31.4231 38.5517C30.7522 39.2226 31.059 40.3997 31.3832 41.6458C31.6686 42.742 31.9638 43.8754 31.5259 44.7524C31.2186 45.3642 30.5472 45.6923 29.6166 45.6923Z"
        fill="#333333" />
    <path
        d="M38.1767 29.3557C38.002 29.3633 37.8276 29.3356 37.6639 29.2743C37.5001 29.2129 37.3504 29.1192 37.2237 28.9987C36.4244 28.1993 36.9936 26.4924 37.6524 24.5153C38.5354 21.8657 42.6464 21.0161 42.8208 20.9805C42.9631 20.9518 43.1109 20.9808 43.2318 21.0611C43.3527 21.1414 43.4368 21.2664 43.4655 21.4087C43.4942 21.5509 43.4652 21.6987 43.3849 21.8196C43.3046 21.9405 43.1796 22.0246 43.0374 22.0533C43.0007 22.0604 39.3741 22.8138 38.6918 24.8608C38.3369 25.9248 37.6775 27.9041 37.999 28.2256C38.0324 28.2589 38.25 28.3141 38.7929 28.1332C39.4448 27.9071 40.0524 27.5693 40.5885 27.1348C41.02 26.7211 41.5645 26.4445 42.1531 26.34C42.7417 26.2355 43.3482 26.3077 43.8958 26.5476C45.8389 27.1955 47.1763 25.2589 47.2309 25.1763C47.3127 25.0586 47.4375 24.9777 47.5783 24.951C47.7192 24.9244 47.8649 24.9541 47.984 25.0338C48.1032 25.1135 48.1863 25.2369 48.2154 25.3772C48.2445 25.5176 48.2173 25.6638 48.1396 25.7843C47.5109 26.7269 45.7416 28.3163 43.5469 27.5853C42.3484 27.1851 41.9772 27.4612 41.2396 28.0118C40.6106 28.5169 39.8988 28.9091 39.1357 29.1709C38.8279 29.2828 38.5042 29.3452 38.1767 29.3557Z"
        fill="#333333" />
    <path
        d="M41.7799 49.7279C41.2671 49.5589 40.0347 49.0493 39.664 47.9739C39.5557 47.6015 39.5382 47.2087 39.6129 46.8282C39.6876 46.4477 39.8523 46.0907 40.0932 45.7869C41.5869 43.5452 41.5869 41.2882 41.5869 38.1624C41.5869 36.8934 40.8275 36.2318 40.0926 35.5927C39.2528 34.8606 38.2074 33.9524 39.3004 32.3122C41.2031 29.4576 45.7778 31.4483 47.1348 32.1263C48.026 32.5724 49.2835 32.4139 49.9544 32.2799C50.1884 32.2334 50.3803 32.1842 50.5099 32.1476L50.8051 33.2006C50.6564 33.2422 50.4366 33.2985 50.1693 33.3521C48.9983 33.6453 47.7644 33.5586 46.646 33.1044C45.8259 32.6938 41.6536 30.7534 40.2102 32.9191C39.6744 33.7228 39.91 33.9852 40.8116 34.7698C41.6006 35.4571 42.681 36.398 42.681 38.1651C42.681 41.3582 42.681 43.8803 41.0035 46.3959C40.8618 46.5624 40.7605 46.7593 40.7075 46.9714C40.6544 47.1835 40.6512 47.4049 40.6979 47.6185C40.9166 48.2489 41.8461 48.5983 42.1227 48.6901L41.7799 49.7279Z"
        fill="#333333" />
    <path
        d="M45.3885 51.3414C45.3592 51.3417 45.33 51.3395 45.3011 51.3349C45.2025 51.3189 45.1102 51.2763 45.0342 51.2116C44.9581 51.147 44.9012 51.0627 44.8697 50.968L42.1627 42.8482C42.1303 42.7517 42.1255 42.6481 42.1488 42.549C42.1721 42.45 42.2226 42.3594 42.2946 42.2874C42.3666 42.2155 42.4572 42.1651 42.5563 42.1419C42.6554 42.1186 42.759 42.1235 42.8554 42.156L50.9742 44.8624C51.069 44.8939 51.1534 44.9507 51.2182 45.0268C51.283 45.1028 51.3257 45.1952 51.3417 45.2938C51.3577 45.3924 51.3464 45.4935 51.309 45.5862C51.2715 45.6788 51.2095 45.7594 51.1294 45.8192L48.0988 48.0915L45.8259 51.1227C45.775 51.1906 45.709 51.2458 45.6331 51.2837C45.5571 51.3217 45.4734 51.3414 45.3885 51.3414ZM43.5465 43.5398L45.5772 49.6312L47.2721 47.3737C47.3031 47.3321 47.3399 47.2953 47.3815 47.2643L49.639 45.5694L43.5465 43.5398Z"
        fill="#333333" />
</svg>
