<svg width="60" height="60" viewBox="0 0 60 60" fill="none" xmlns="http://www.w3.org/2000/svg">
    <rect x="0.5" y="0.5" width="59" height="59" rx="29.5" stroke="url(#paint0_linear_6_676)" />
    <path d="M39.7249 23.8274H25.8858C25.0595 23.8274 24.3896 24.5642 24.3896 25.4731V40.6962C24.3896 41.6051 25.0595 42.3419 25.8858 42.3419H39.7249C40.5512 42.3419 41.221 41.6051 41.221 40.6962V25.4731C41.221 24.5642 40.5512 23.8274 39.7249 23.8274ZM40.473 25.4731V40.6962C40.4721 40.7673 40.4628 40.838 40.4453 40.9064L33.3342 33.0847L40.4453 25.2629C40.4628 25.3314 40.4721 25.402 40.473 25.4731ZM39.7249 24.6503C39.7896 24.6512 39.8539 24.6616 39.9161 24.6811L32.8053 32.5029L25.6946 24.6811C25.7568 24.6616 25.8211 24.6512 25.8858 24.6503H39.7249ZM25.1654 40.9064C25.1479 40.838 25.1386 40.7673 25.1377 40.6962V25.4731C25.1386 25.402 25.1479 25.3314 25.1654 25.2629L32.2765 33.0847L25.1654 40.9064ZM25.8858 41.5191C25.8211 41.5181 25.7568 41.5077 25.6946 41.4882L32.8053 33.6664L39.9161 41.4882C39.8539 41.5077 39.7896 41.5181 39.7249 41.5191H25.8858Z" fill="url(#paint1_linear_6_676)" />
    <path d="M19.1531 24.6503H22.8934C23.1 24.6503 23.2674 24.4661 23.2674 24.2388C23.2674 24.0116 23.1 23.8274 22.8934 23.8274H19.1531C18.9465 23.8274 18.7791 24.0116 18.7791 24.2388C18.7791 24.4661 18.9465 24.6503 19.1531 24.6503Z" fill="url(#paint2_linear_6_676)" />
    <path d="M19.1531 42.3436H22.8934C23.1 42.3436 23.2674 42.1594 23.2674 41.9322C23.2674 41.705 23.1 41.5208 22.8934 41.5208H19.1531C18.9465 41.5208 18.7791 41.705 18.7791 41.9322C18.7791 42.1594 18.9465 42.3436 19.1531 42.3436Z" fill="url(#paint3_linear_6_676)" />
    <path d="M22.6057 28.6185C22.7379 28.7933 22.9739 28.817 23.1327 28.6716C23.2916 28.5262 23.3132 28.2666 23.181 28.0919L21.3108 25.6233C21.2373 25.5338 21.1328 25.4827 21.0232 25.4827C20.9135 25.4827 20.809 25.5338 20.7356 25.6233L18.8654 28.0919C18.7332 28.2666 18.7548 28.5262 18.9136 28.6716C19.0725 28.817 19.3085 28.7933 19.4407 28.6185L20.6492 27.023V39.1504L19.4407 37.5549C19.3085 37.3801 19.0725 37.3564 18.9136 37.5018C18.7548 37.6472 18.7332 37.9068 18.8654 38.0815L20.7356 40.5501C20.8066 40.6442 20.912 40.6985 21.0232 40.6985C21.1343 40.6985 21.2398 40.6442 21.3108 40.5501L23.181 38.0815C23.2665 37.9685 23.2907 37.8138 23.2445 37.6759C23.1982 37.5379 23.0886 37.4375 22.9568 37.4125C22.8251 37.3876 22.6912 37.4418 22.6057 37.5549L21.3972 39.1504V27.023L22.6057 28.6185Z" fill="url(#paint4_linear_6_676)" />
    <path d="M40.8469 17.6565C40.6404 17.6565 40.4729 17.8407 40.4729 18.0679V22.1823C40.4729 22.4095 40.6404 22.5937 40.8469 22.5937C41.0535 22.5937 41.221 22.4095 41.221 22.1823V18.0679C41.221 17.8407 41.0535 17.6565 40.8469 17.6565Z" fill="url(#paint5_linear_6_676)" />
    <path d="M24.7637 17.6565C24.5571 17.6565 24.3896 17.8407 24.3896 18.0679V22.1823C24.3896 22.4095 24.5571 22.5937 24.7637 22.5937C24.9703 22.5937 25.1377 22.4095 25.1377 22.1823V18.0679C25.1377 17.8407 24.9703 17.6565 24.7637 17.6565Z" fill="url(#paint6_linear_6_676)" />
    <path d="M28.7918 17.8048C28.7283 17.7208 28.637 17.6681 28.538 17.6582C28.4391 17.6483 28.3407 17.6821 28.2644 17.7522L26.0202 19.8094C25.935 19.8875 25.8857 20.0033 25.8857 20.1253C25.8857 20.2474 25.935 20.3631 26.0202 20.4413L28.2644 22.4985C28.367 22.5927 28.5076 22.6195 28.6331 22.5689C28.7586 22.5182 28.8499 22.3978 28.8728 22.2529C28.8957 22.108 28.8465 21.9607 28.7439 21.8665L27.2931 20.5368H38.318L36.8671 21.8665C36.7645 21.9607 36.7154 22.108 36.7382 22.2529C36.7611 22.3978 36.8525 22.5182 36.978 22.5689C37.1035 22.6195 37.244 22.5927 37.3466 22.4985L39.5908 20.4413C39.676 20.3631 39.7253 20.2474 39.7253 20.1253C39.7253 20.0033 39.676 19.8875 39.5908 19.8094L37.3466 17.7522C37.244 17.658 37.1035 17.6311 36.978 17.6818C36.8525 17.7324 36.7611 17.8529 36.7382 17.9978C36.7154 18.1426 36.7645 18.2899 36.8671 18.3841L38.318 19.7139H27.2931L28.7439 18.3841C28.9025 18.2387 28.9239 17.9794 28.7918 17.8048Z" fill="url(#paint7_linear_6_676)" />
    <defs>
        <linearGradient id="paint0_linear_6_676" x1="30" y1="0" x2="30" y2="60" gradientUnits="userSpaceOnUse">
            <stop stop-color="#FCB248" />
            <stop offset="1" stop-color="#DF1F28" />
        </linearGradient>
        <linearGradient id="paint1_linear_6_676" x1="32.8053" y1="23.8274" x2="32.8053" y2="42.3419" gradientUnits="userSpaceOnUse">
            <stop stop-color="#FCB248" />
            <stop offset="1" stop-color="#DF1F28" />
        </linearGradient>
        <linearGradient id="paint2_linear_6_676" x1="21.0232" y1="23.8274" x2="21.0232" y2="24.6503" gradientUnits="userSpaceOnUse">
            <stop stop-color="#FCB248" />
            <stop offset="1" stop-color="#DF1F28" />
        </linearGradient>
        <linearGradient id="paint3_linear_6_676" x1="21.0232" y1="41.5208" x2="21.0232" y2="42.3436" gradientUnits="userSpaceOnUse">
            <stop stop-color="#FCB248" />
            <stop offset="1" stop-color="#DF1F28" />
        </linearGradient>
        <linearGradient id="paint4_linear_6_676" x1="21.0232" y1="25.4827" x2="21.0232" y2="40.6985" gradientUnits="userSpaceOnUse">
            <stop stop-color="#FCB248" />
            <stop offset="1" stop-color="#DF1F28" />
        </linearGradient>
        <linearGradient id="paint5_linear_6_676" x1="40.8469" y1="17.6565" x2="40.8469" y2="22.5937" gradientUnits="userSpaceOnUse">
            <stop stop-color="#FCB248" />
            <stop offset="1" stop-color="#DF1F28" />
        </linearGradient>
        <linearGradient id="paint6_linear_6_676" x1="24.7637" y1="17.6565" x2="24.7637" y2="22.5937" gradientUnits="userSpaceOnUse">
            <stop stop-color="#FCB248" />
            <stop offset="1" stop-color="#DF1F28" />
        </linearGradient>
        <linearGradient id="paint7_linear_6_676" x1="32.8055" y1="17.6565" x2="32.8055" y2="22.5941" gradientUnits="userSpaceOnUse">
            <stop stop-color="#FCB248" />
            <stop offset="1" stop-color="#DF1F28" />
        </linearGradient>
    </defs>
</svg>
