<svg width="60" height="60" viewBox="0 0 60 60" fill="none" xmlns="http://www.w3.org/2000/svg">
    <rect x="0.5" y="0.5" width="59" height="59" rx="29.5" stroke="url(#paint0_linear_6_664)" />
    <path d="M28.3725 21.812C28.6654 21.812 28.9051 21.5723 28.9051 21.2793V18.9624L31.222 21.6309C31.3286 21.748 31.4777 21.812 31.6268 21.812C31.6908 21.812 31.7547 21.8013 31.8079 21.78C32.0157 21.7001 32.1541 21.503 32.1541 21.2793V17.5349C32.1541 17.242 31.9145 17.0023 31.6215 17.0023C31.3286 17.0023 31.0889 17.242 31.0889 17.5349V19.8519L28.7719 17.1834C28.6281 17.0183 28.3938 16.9544 28.1861 17.0343C27.9783 17.1142 27.8398 17.3112 27.8398 17.5349V21.2793C27.8398 21.5723 28.0795 21.812 28.3725 21.812Z" fill="url(#paint1_linear_6_664)" />
    <path d="M31.6427 41.2263C31.6427 41.2104 31.6374 41.1944 31.6374 41.1784C31.5149 40.4434 30.9077 39.8734 30.1301 39.7616C30.1088 39.7563 30.0875 39.7563 30.0662 39.7563C30.0449 39.7509 30.0182 39.7509 29.9916 39.7509C29.7253 39.7509 29.4483 39.6125 29.427 39.3089C29.427 39.2929 29.427 39.2822 29.4217 39.2662C29.3844 39.0372 29.5122 38.7549 29.8211 38.6857C29.8371 38.6804 29.8531 38.6803 29.8638 38.675C30.1247 38.5951 30.439 38.7443 30.5722 39.0159C30.7053 39.2769 31.0249 39.3834 31.2859 39.2556C31.5469 39.1224 31.6534 38.8029 31.5256 38.5419C31.1634 37.8122 30.3271 37.434 29.5708 37.6524C28.7612 37.8388 28.2446 38.5845 28.3617 39.4101C28.431 40.225 29.1021 40.8109 29.9703 40.8215C30.2792 40.8641 30.5189 41.0719 30.5722 41.3382C30.5828 41.6098 30.4177 41.8389 30.1674 41.8921C30.1567 41.8975 30.1407 41.8975 30.1301 41.9028C29.8318 41.9933 29.5122 41.8868 29.3524 41.6365C29.1926 41.3861 28.8677 41.3169 28.6174 41.4713C28.3671 41.6311 28.2978 41.956 28.4523 42.2064C28.7719 42.7071 29.3311 43 29.917 43C30.0875 43 30.2579 42.9734 30.423 42.9254C31.2007 42.739 31.7067 42.0306 31.6427 41.2263Z" fill="url(#paint2_linear_6_664)" />
    <path d="M42.4658 31.6229H39.7867V30.531H41.4112C41.7042 30.531 41.9439 30.2913 41.9439 29.9984C41.9439 29.7054 41.7042 29.4657 41.4112 29.4657H39.7867V28.3739H42.4658C42.7588 28.3739 42.9985 28.1342 42.9985 27.8412C42.9985 27.5483 42.7588 27.3086 42.4658 27.3086H39.2541C38.9611 27.3086 38.7214 27.5483 38.7214 27.8412V32.1555C38.7214 32.4485 38.9611 32.6882 39.2541 32.6882H42.4658C42.7588 32.6882 42.9985 32.4485 42.9985 32.1555C42.9985 31.8626 42.7588 31.6229 42.4658 31.6229Z" fill="url(#paint3_linear_6_664)" />
    <path d="M21.9489 27.314C21.6613 27.2767 21.395 27.4844 21.3577 27.7774L21.0009 30.6802L20.17 29.4552C20.0688 29.306 19.9036 29.2208 19.7279 29.2208C19.5521 29.2208 19.387 29.3114 19.2858 29.4552L18.4442 30.6962L18.0607 27.7721C18.0235 27.4791 17.7571 27.2767 17.4642 27.314C17.1712 27.3513 16.9688 27.6176 17.0061 27.9105L17.576 32.2249C17.6027 32.4432 17.7678 32.619 17.9808 32.6723C18.1992 32.7255 18.4229 32.635 18.5454 32.4539L19.7332 30.7015L20.921 32.4539C21.0222 32.603 21.1873 32.6883 21.363 32.6883C21.4003 32.6883 21.4429 32.6829 21.4802 32.6723C21.6986 32.619 21.8584 32.4379 21.885 32.2195L22.4123 27.9052C22.4496 27.6176 22.2419 27.3513 21.9489 27.314Z" fill="url(#paint4_linear_6_664)" />
    <path d="M34.1621 27.9903C33.9544 27.7826 33.6188 27.7826 33.4111 27.9903C33.2034 28.198 33.2034 28.5336 33.4111 28.7413L34.1301 29.4604H30.5349V25.8651L31.2539 26.5841C31.3605 26.6907 31.4936 26.7386 31.6321 26.7386C31.7706 26.7386 31.9037 26.6853 32.0103 26.5841C32.218 26.3764 32.218 26.0409 32.0103 25.8331L30.3858 24.2033C30.2846 24.1021 30.1514 24.0488 30.0076 24.0488C29.8638 24.0488 29.7306 24.1074 29.6294 24.2033L28.0049 25.8331C27.7972 26.0409 27.7972 26.3764 28.0049 26.5841C28.2126 26.7919 28.5482 26.7919 28.7559 26.5841L29.475 25.8651V29.4604H25.885L26.6041 28.7413C26.8118 28.5336 26.8118 28.198 26.6041 27.9903C26.3964 27.7826 26.0608 27.7826 25.8531 27.9903L24.2285 29.6201C24.0208 29.8279 24.0208 30.1634 24.2285 30.3712L25.8531 32.001C25.9596 32.1075 26.0928 32.1555 26.2312 32.1555C26.3697 32.1555 26.5029 32.1022 26.6094 32.001C26.8171 31.7933 26.8171 31.4577 26.6094 31.25L25.8904 30.5309H29.4803V34.1262L28.7612 33.4072C28.5535 33.1994 28.2179 33.1994 28.0102 33.4072C27.8025 33.6149 27.8025 33.9504 28.0102 34.1582L29.6347 35.788C29.7359 35.8892 29.8691 35.9425 30.0129 35.9425C30.1567 35.9425 30.2899 35.8839 30.3911 35.788L32.0156 34.1582C32.2233 33.9504 32.2233 33.6149 32.0156 33.4072C31.8079 33.1994 31.4723 33.1994 31.2646 33.4072L30.5455 34.1262V30.5309H34.1355L33.4164 31.25C33.2087 31.4577 33.2087 31.7933 33.4164 32.001C33.5229 32.1075 33.6561 32.1555 33.7946 32.1555C33.9331 32.1555 34.0662 32.1022 34.1728 32.001L35.7973 30.3712C35.9944 30.1688 35.9944 29.8279 35.7866 29.6201L34.1621 27.9903Z" fill="url(#paint5_linear_6_664)" />
    <defs>
        <linearGradient id="paint0_linear_6_664" x1="30" y1="0" x2="30" y2="60" gradientUnits="userSpaceOnUse">
            <stop stop-color="#FCB248" />
            <stop offset="1" stop-color="#DF1F28" />
        </linearGradient>
        <linearGradient id="paint1_linear_6_664" x1="29.997" y1="17" x2="29.997" y2="21.812" gradientUnits="userSpaceOnUse">
            <stop stop-color="#FCB248" />
            <stop offset="1" stop-color="#DF1F28" />
        </linearGradient>
        <linearGradient id="paint2_linear_6_664" x1="29.9967" y1="37.5908" x2="29.9967" y2="43" gradientUnits="userSpaceOnUse">
            <stop stop-color="#FCB248" />
            <stop offset="1" stop-color="#DF1F28" />
        </linearGradient>
        <linearGradient id="paint3_linear_6_664" x1="40.8599" y1="27.3086" x2="40.8599" y2="32.6882" gradientUnits="userSpaceOnUse">
            <stop stop-color="#FCB248" />
            <stop offset="1" stop-color="#DF1F28" />
        </linearGradient>
        <linearGradient id="paint4_linear_6_664" x1="19.7092" y1="27.3096" x2="19.7092" y2="32.6883" gradientUnits="userSpaceOnUse">
            <stop stop-color="#FCB248" />
            <stop offset="1" stop-color="#DF1F28" />
        </linearGradient>
        <linearGradient id="paint5_linear_6_664" x1="30.0083" y1="24.0488" x2="30.0083" y2="35.9425" gradientUnits="userSpaceOnUse">
            <stop stop-color="#FCB248" />
            <stop offset="1" stop-color="#DF1F28" />
        </linearGradient>
    </defs>
</svg>
