<svg width="60" height="60" viewBox="0 0 60 60" fill="none" xmlns="http://www.w3.org/2000/svg">
    <rect x="0.5" y="0.5" width="59" height="59" rx="29.5" stroke="url(#paint0_linear_6_748)" />
    <path d="M43.1012 35.2315H38.3567C39.5988 33.3853 40.4653 31.2084 40.9272 28.7426C40.961 28.5627 40.8559 28.386 40.682 28.3293L37.7016 27.3613V21.5227C37.7016 20.7455 37.0693 20.1134 36.2921 20.1134H33.9349V17.6257C33.9349 17.0244 33.4456 16.5352 32.8442 16.5352H27.1558C26.5543 16.5352 26.0651 17.0244 26.0651 17.6257V20.1135H23.708C22.9308 20.1135 22.2986 20.7456 22.2986 21.5227V27.3614L19.3181 28.3294C19.1443 28.3861 19.0392 28.5628 19.0729 28.7427C19.5347 31.2085 20.4011 33.3854 21.6431 35.2316H16.8988C16.6978 35.2315 16.5349 35.3945 16.5349 35.5955C16.5349 35.7964 16.6978 35.9594 16.8988 35.9594H43.1012C43.3023 35.9594 43.4652 35.7964 43.4652 35.5955C43.4652 35.3945 43.3023 35.2315 43.1012 35.2315ZM26.7929 17.6257C26.7929 17.4257 26.9557 17.263 27.1558 17.263H32.8442C33.0443 17.263 33.207 17.4258 33.207 17.6257V20.1135H26.7929V17.6257ZM23.0264 21.5227C23.0264 21.1469 23.3321 20.8413 23.708 20.8413H36.292C36.6679 20.8413 36.9736 21.1469 36.9736 21.5227V27.1249L30.1125 24.8965C30.0395 24.8729 29.9606 24.8729 29.8876 24.8965L23.0263 27.1249V21.5227H23.0264ZM30.0001 25.6253L40.1505 28.9222C40.0095 29.6146 39.8316 30.2796 39.6246 30.9218L30.1124 27.8321C30.0394 27.8084 29.9605 27.8084 29.8875 27.8321L20.3754 30.9218C20.1683 30.2796 19.9906 29.6146 19.8495 28.9222L30.0001 25.6253ZM20.6102 31.6108L30 28.5609L39.3897 31.6109C38.8975 32.9414 38.2554 34.1511 37.4717 35.2315H22.5288C21.745 34.1511 21.1025 32.9415 20.6102 31.6108ZM42.0206 38.0972C42.0206 38.2981 41.8577 38.4611 41.6567 38.4611H18.3434C18.1424 38.4611 17.9795 38.2981 17.9795 38.0972C17.9795 37.8963 18.1424 37.7333 18.3434 37.7333H41.6567C41.8577 37.7333 42.0206 37.8963 42.0206 38.0972ZM40.576 40.5991C40.576 40.8 40.4131 40.963 40.2121 40.963H19.7879C19.5869 40.963 19.424 40.8 19.424 40.5991C19.424 40.3982 19.5869 40.2352 19.7879 40.2352H40.2122C40.4131 40.2352 40.576 40.3982 40.576 40.5991ZM39.1316 43.1011C39.1316 43.302 38.9687 43.465 38.7677 43.465H21.2323C21.0313 43.465 20.8684 43.302 20.8684 43.1011C20.8684 42.9002 21.0313 42.7372 21.2323 42.7372H38.7677C38.9687 42.7372 39.1316 42.9002 39.1316 43.1011ZM26.0879 21.8447H24.2682C24.0672 21.8447 23.9043 22.0077 23.9043 22.2086V24.0284C23.9043 24.2294 24.0672 24.3924 24.2682 24.3924H26.0879C26.289 24.3924 26.4519 24.2294 26.4519 24.0284V22.2086C26.4519 22.0077 26.289 21.8447 26.0879 21.8447ZM25.724 23.6645H24.6321V22.5725H25.724V23.6645ZM31.2737 24.0284V22.2086C31.2737 22.0077 31.1108 21.8447 30.9098 21.8447H29.0902C28.8892 21.8447 28.7263 22.0077 28.7263 22.2086V24.0284C28.7263 24.2294 28.8892 24.3924 29.0902 24.3924H30.9098C31.1108 24.3924 31.2737 24.2294 31.2737 24.0284ZM30.5458 23.6645H29.4541V22.5725H30.5458V23.6645ZM33.9121 24.3924H35.7317C35.9327 24.3924 36.0956 24.2294 36.0956 24.0284V22.2086C36.0956 22.0077 35.9327 21.8447 35.7317 21.8447H33.9121C33.7111 21.8447 33.5482 22.0077 33.5482 22.2086V24.0284C33.5482 24.2294 33.7111 24.3924 33.9121 24.3924ZM34.276 22.5725H35.3678V23.6645H34.276V22.5725Z" fill="url(#paint1_linear_6_748)" />
    <defs>
        <linearGradient id="paint0_linear_6_748" x1="30" y1="0" x2="30" y2="60" gradientUnits="userSpaceOnUse">
            <stop stop-color="#FCB248" />
            <stop offset="1" stop-color="#DF1F28" />
        </linearGradient>
        <linearGradient id="paint1_linear_6_748" x1="30" y1="16.5352" x2="30" y2="43.465" gradientUnits="userSpaceOnUse">
            <stop stop-color="#FCB248" />
            <stop offset="1" stop-color="#DF1F28" />
        </linearGradient>
    </defs>
</svg>
