<svg width="70" height="70" viewBox="0 0 70 70" fill="none" xmlns="http://www.w3.org/2000/svg">
    <rect width="70" height="70" rx="35" fill="white" />
    <path
        d="M26.3863 31.269C26.2066 31.269 26.0301 31.3422 25.9029 31.4693C25.7758 31.5965 25.7026 31.773 25.7026 31.9527C25.7026 32.1333 25.7758 32.309 25.9029 32.4361C26.0301 32.5632 26.2066 32.6364 26.3863 32.6364C26.5663 32.6364 26.7426 32.5632 26.8697 32.4361C26.9968 32.309 27.07 32.1325 27.07 31.9527C27.07 31.773 26.9968 31.5965 26.8697 31.4693C26.7426 31.3422 26.5663 31.269 26.3863 31.269Z"
        fill="#333333" />
    <path
        d="M38.6925 32.6766C35.3752 32.6766 32.6763 35.3753 32.6763 38.6928C32.6763 42.0103 35.3752 44.7093 38.6925 44.7093C42.01 44.7093 44.7089 42.0103 44.7089 38.6928C44.7089 35.3753 42.01 32.6766 38.6925 32.6766ZM38.6925 43.3419C36.1292 43.3419 34.0436 41.2564 34.0436 38.6928C34.0436 36.1295 36.1292 34.0437 38.6925 34.0437C41.256 34.0437 43.3415 36.1295 43.3415 38.6928C43.3415 41.2564 41.256 43.3419 38.6925 43.3419Z"
        fill="#333333" />
    <path
        d="M51.8237 48.5449L49.8309 46.5521C49.5641 46.2853 49.1312 46.2853 48.8641 46.5521C48.597 46.8191 48.597 47.252 48.8641 47.5191L50.8567 49.5117C51.0364 49.6914 51.1352 49.9302 51.1352 50.1842C51.1352 50.4381 51.0364 50.6769 50.8567 50.8564C50.486 51.2273 49.8827 51.2273 49.512 50.8564L44.2655 45.6101C46.2856 43.9794 47.5803 41.4845 47.5803 38.6921C47.5803 35.5519 45.9435 32.787 43.4782 31.2057V19.2382C43.4782 18.7508 43.2279 18.3112 42.8089 18.0625C42.3899 17.8136 41.8843 17.8043 41.4565 18.0374L34.5902 21.7793L27.0405 17.6649C26.6309 17.4416 26.1419 17.4416 25.7319 17.6649L18.2113 21.7635C17.7717 22.0031 17.4985 22.4633 17.4985 22.964V38.2252C17.4985 38.7126 17.7488 39.1519 18.1678 39.4008C18.3847 39.5298 18.6248 39.5942 18.8654 39.5942C19.0894 39.5942 19.3138 39.5384 19.5202 39.4257L26.3862 35.6838L29.8738 37.5845C29.8284 37.9475 29.8049 38.3171 29.8049 38.6921C29.8049 43.593 33.792 47.5797 38.6926 47.5797C40.3033 47.5797 41.8149 47.1492 43.119 46.3972L48.5449 51.8231C48.9829 52.2611 49.5651 52.5023 50.1845 52.5023C50.8035 52.5023 51.3857 52.2611 51.8237 51.8231C52.7275 50.9194 52.7275 49.4487 51.8237 48.5449ZM42.1108 19.2382V30.4883C41.058 30.0479 39.9032 29.8044 38.6926 29.8044C37.4817 29.8044 36.3269 30.0479 35.2742 30.4886V23.105C35.2742 23.0591 35.2694 23.0145 35.2608 22.9712L42.1108 19.2382ZM27.0405 34.4834C26.6309 34.2601 26.1419 34.2598 25.7319 34.4834L18.8659 38.2252V22.964L25.7025 19.2382V29.1861C25.7025 29.5637 26.0089 29.8698 26.3862 29.8698C26.7639 29.8698 27.0699 29.5637 27.0699 29.1861V19.2382L33.9199 22.9712C33.9113 23.0145 33.9068 23.0591 33.9068 23.105V31.2059C32.1247 32.3492 30.776 34.1113 30.1652 36.1862L27.0405 34.4834ZM31.1723 38.6921C31.1723 34.5453 34.5459 31.1717 38.6926 31.1717C42.8393 31.1717 46.2132 34.5453 46.2132 38.6921C46.2132 42.8388 42.8393 46.2126 38.6926 46.2126C34.5459 46.2126 31.1723 42.8388 31.1723 38.6921Z"
        fill="#333333" />
    <path
        d="M38.6925 35.6161C38.3151 35.6161 38.0088 35.9224 38.0088 36.2998C38.0088 36.6774 38.3151 36.9835 38.6925 36.9835C39.635 36.9835 40.4014 37.7502 40.4014 38.6924C40.4014 39.0701 40.7078 39.3761 41.0851 39.3761C41.4628 39.3761 41.7688 39.0701 41.7688 38.6924C41.7688 36.9963 40.3889 35.6161 38.6925 35.6161Z"
        fill="#333333" />
    <path
        d="M46.8999 45.2702C46.8999 45.451 46.9731 45.6265 47.1002 45.7544C47.2273 45.8815 47.4031 45.9539 47.5836 45.9539C47.7633 45.9539 47.9399 45.8815 48.067 45.7544C48.1941 45.6265 48.2673 45.451 48.2673 45.2702C48.2673 45.0905 48.1941 44.9142 48.067 44.7871C47.9399 44.66 47.7633 44.5868 47.5836 44.5868C47.4031 44.5868 47.2273 44.6597 47.1002 44.7871C46.9731 44.9142 46.8999 45.0905 46.8999 45.2702Z"
        fill="#333333" />
</svg>
