<svg width="60" height="60" viewBox="0 0 60 60" fill="none" xmlns="http://www.w3.org/2000/svg">
    <rect x="0.5" y="0.5" width="59" height="59" rx="29.5" stroke="url(#paint0_linear_6_724)" />
    <path d="M38.9766 38.731C37.9975 38.731 37.5396 38.5592 37.0093 38.3604C36.4205 38.1396 35.7532 37.8894 34.488 37.8894C33.2229 37.8894 32.5556 38.1397 31.9668 38.3604C31.4366 38.5592 30.9787 38.731 29.9997 38.731C29.0207 38.731 28.5628 38.5592 28.0326 38.3604C27.4439 38.1397 26.7766 37.8894 25.5114 37.8894C24.2463 37.8894 23.579 38.1397 22.9902 38.3604C22.46 38.5592 22.0021 38.731 21.0232 38.731C20.0442 38.731 19.5863 38.5592 19.0561 38.3604C18.4673 38.1397 17.8001 37.8894 16.5349 37.8894V39.4673C17.5139 39.4673 17.9718 39.6391 18.502 39.8379C19.0908 40.0587 19.758 40.3089 21.0232 40.3089C22.2883 40.3089 22.9556 40.0587 23.5443 39.8379C24.0745 39.6391 24.5325 39.4673 25.5115 39.4673C26.4905 39.4673 26.9483 39.6391 27.4785 39.8379C28.0673 40.0587 28.7345 40.3089 29.9997 40.3089C31.2648 40.3089 31.9321 40.0587 32.5208 39.8379C33.0511 39.6391 33.509 39.4673 34.488 39.4673C35.4671 39.4673 35.9251 39.6391 36.4553 39.8379C37.0441 40.0587 37.7114 40.3089 38.9766 40.3089C40.2418 40.3089 40.9091 40.0587 41.4979 39.8379C42.0281 39.6391 42.4861 39.4673 43.4652 39.4673V37.8894C42.2 37.8894 41.5326 38.1396 40.9439 38.3604C40.4136 38.5592 39.9556 38.731 38.9766 38.731Z" fill="url(#paint1_linear_6_724)" />
    <path d="M38.9766 41.8872C37.9975 41.8872 37.5396 41.7155 37.0093 41.5167C36.4205 41.2959 35.7532 41.0457 34.488 41.0457C33.2229 41.0457 32.5556 41.2959 31.9668 41.5167C31.4366 41.7155 30.9787 41.8872 29.9997 41.8872C29.0207 41.8872 28.5628 41.7155 28.0326 41.5167C27.4439 41.2959 26.7766 41.0457 25.5114 41.0457C24.2463 41.0457 23.579 41.2959 22.9902 41.5167C22.46 41.7155 22.0021 41.8872 21.0232 41.8872C20.0442 41.8872 19.5863 41.7155 19.0561 41.5167C18.4673 41.2959 17.8001 41.0457 16.5349 41.0457V42.6236C17.5139 42.6236 17.9718 42.7953 18.502 42.9942C19.0908 43.2149 19.758 43.4652 21.0232 43.4652C22.2883 43.4652 22.9556 43.2149 23.5443 42.9942C24.0745 42.7953 24.5325 42.6236 25.5115 42.6236C26.4905 42.6236 26.9483 42.7953 27.4785 42.9942C28.0673 43.2149 28.7345 43.4652 29.9997 43.4652C31.2648 43.4652 31.9321 43.2149 32.5208 42.9942C33.0511 42.7953 33.509 42.6236 34.488 42.6236C35.4671 42.6236 35.9251 42.7953 36.4553 42.9942C37.0441 43.215 37.7114 43.4652 38.9766 43.4652C40.2418 43.4652 40.9091 43.215 41.4979 42.9942C42.0281 42.7953 42.4861 42.6236 43.4652 42.6236V41.0457C42.2 41.0457 41.5326 41.2959 40.9439 41.5167C40.4136 41.7155 39.9556 41.8872 38.9766 41.8872Z" fill="url(#paint2_linear_6_724)" />
    <path d="M40.9439 17.0059C40.4136 17.2047 39.9556 17.3765 38.9766 17.3765C37.9975 17.3765 37.5396 17.2047 37.0093 17.0059C36.4205 16.7851 35.7532 16.5349 34.488 16.5349C33.2229 16.5349 32.5556 16.7852 31.9668 17.0059C31.4366 17.2047 30.9787 17.3765 29.9997 17.3765C29.0207 17.3765 28.5628 17.2047 28.0326 17.0059C27.4439 16.7852 26.7766 16.5349 25.5115 16.5349C24.2463 16.5349 23.579 16.7852 22.9903 17.0059C22.46 17.2047 22.0022 17.3765 21.0232 17.3765C20.0442 17.3765 19.5863 17.2047 19.0561 17.0059C18.4673 16.7852 17.8001 16.5349 16.5349 16.5349V18.1129C17.5139 18.1129 17.9718 18.2846 18.502 18.4834C19.0908 18.7042 19.758 18.9544 21.0232 18.9544C22.2883 18.9544 22.9556 18.7042 23.5443 18.4834C24.0745 18.2846 24.5325 18.1129 25.5115 18.1129C26.4905 18.1129 26.9483 18.2846 27.4785 18.4834C28.0673 18.7042 28.7345 18.9544 29.9997 18.9544C31.2648 18.9544 31.9321 18.7042 32.5208 18.4834C33.0511 18.2846 33.509 18.1129 34.488 18.1129C35.4671 18.1129 35.9251 18.2846 36.4553 18.4834C37.0441 18.7042 37.7114 18.9544 38.9766 18.9544C40.2418 18.9544 40.9091 18.7042 41.4979 18.4834C42.0281 18.2846 42.4861 18.1129 43.4652 18.1129V16.5349C42.2 16.5349 41.5326 16.7851 40.9439 17.0059Z" fill="url(#paint3_linear_6_724)" />
    <path d="M23.4535 32.0626L22.3376 33.1784L25.3031 36.1438L28.2686 33.1784L27.1528 32.0626L26.0921 33.1233V22.7752L27.1528 23.8359L28.2686 22.7201L25.3031 19.7546L22.3376 22.7201L23.4535 23.8359L24.5142 22.7752V33.1233L23.4535 32.0626Z" fill="url(#paint4_linear_6_724)" />
    <path d="M31.606 34.0505H37.7176V35.6285H31.606V34.0505Z" fill="url(#paint5_linear_6_724)" />
    <path d="M31.606 30.8943H35.9547V32.4722H31.606V30.8943Z" fill="url(#paint6_linear_6_724)" />
    <path d="M31.606 27.739H37.7176V29.317H31.606V27.739Z" fill="url(#paint7_linear_6_724)" />
    <path d="M31.606 24.5828H35.9547V26.1607H31.606V24.5828Z" fill="url(#paint8_linear_6_724)" />
    <path d="M31.606 21.4265H37.7176V23.0045H31.606V21.4265Z" fill="url(#paint9_linear_6_724)" />
    <defs>
        <linearGradient id="paint0_linear_6_724" x1="30" y1="0" x2="30" y2="60" gradientUnits="userSpaceOnUse">
            <stop stop-color="#FCB248" />
            <stop offset="1" stop-color="#DF1F28" />
        </linearGradient>
        <linearGradient id="paint1_linear_6_724" x1="30" y1="37.8894" x2="30" y2="40.3089" gradientUnits="userSpaceOnUse">
            <stop stop-color="#FCB248" />
            <stop offset="1" stop-color="#DF1F28" />
        </linearGradient>
        <linearGradient id="paint2_linear_6_724" x1="30" y1="41.0457" x2="30" y2="43.4652" gradientUnits="userSpaceOnUse">
            <stop stop-color="#FCB248" />
            <stop offset="1" stop-color="#DF1F28" />
        </linearGradient>
        <linearGradient id="paint3_linear_6_724" x1="30" y1="16.5349" x2="30" y2="18.9544" gradientUnits="userSpaceOnUse">
            <stop stop-color="#FCB248" />
            <stop offset="1" stop-color="#DF1F28" />
        </linearGradient>
        <linearGradient id="paint4_linear_6_724" x1="25.3031" y1="19.7546" x2="25.3031" y2="36.1438" gradientUnits="userSpaceOnUse">
            <stop stop-color="#FCB248" />
            <stop offset="1" stop-color="#DF1F28" />
        </linearGradient>
        <linearGradient id="paint5_linear_6_724" x1="34.6618" y1="34.0505" x2="34.6618" y2="35.6285" gradientUnits="userSpaceOnUse">
            <stop stop-color="#FCB248" />
            <stop offset="1" stop-color="#DF1F28" />
        </linearGradient>
        <linearGradient id="paint6_linear_6_724" x1="33.7803" y1="30.8943" x2="33.7803" y2="32.4722" gradientUnits="userSpaceOnUse">
            <stop stop-color="#FCB248" />
            <stop offset="1" stop-color="#DF1F28" />
        </linearGradient>
        <linearGradient id="paint7_linear_6_724" x1="34.6618" y1="27.739" x2="34.6618" y2="29.317" gradientUnits="userSpaceOnUse">
            <stop stop-color="#FCB248" />
            <stop offset="1" stop-color="#DF1F28" />
        </linearGradient>
        <linearGradient id="paint8_linear_6_724" x1="33.7803" y1="24.5828" x2="33.7803" y2="26.1607" gradientUnits="userSpaceOnUse">
            <stop stop-color="#FCB248" />
            <stop offset="1" stop-color="#DF1F28" />
        </linearGradient>
        <linearGradient id="paint9_linear_6_724" x1="34.6618" y1="21.4265" x2="34.6618" y2="23.0045" gradientUnits="userSpaceOnUse">
            <stop stop-color="#FCB248" />
            <stop offset="1" stop-color="#DF1F28" />
        </linearGradient>
    </defs>
</svg>
