<svg width="70" height="70" viewBox="0 0 70 70" fill="none" xmlns="http://www.w3.org/2000/svg">
    <rect width="70" height="70" rx="35" fill="white" />
    <path d="M47.4843 23.3526H45.5069V21.7854C45.5069 21.3341 45.1376 20.9648 44.6863 20.9648C44.235 20.9648 43.8658 21.3341 43.8658 21.7854V23.3526H35.8246V21.7854C35.8246 21.3341 35.4554 20.9648 35.0041 20.9648C34.5528 20.9648 34.1836 21.3341 34.1836 21.7854V23.3526H26.0604V21.7854C26.0604 21.3341 25.6911 20.9648 25.2398 20.9648C24.7886 20.9648 24.4193 21.3341 24.4193 21.7854V23.3526H22.5239C20.7187 23.3526 19.25 24.8705 19.25 26.6757V45.7529C19.25 47.5663 20.7105 49.0351 22.5239 49.0351H47.4761C49.2895 49.0351 50.75 47.5663 50.75 45.7612V26.6757C50.7582 24.8705 49.2895 23.3526 47.4843 23.3526ZM49.1172 45.7529C49.1172 46.6555 48.3951 47.3858 47.4925 47.394H47.4843H22.5239C21.6213 47.394 20.8911 46.6637 20.8911 45.7612V45.7529V26.6757C20.8911 25.7649 21.6213 24.9936 22.5239 24.9936H24.4193V26.1834C24.4193 26.6347 24.7886 27.0039 25.2398 27.0039C25.6911 27.0039 26.0604 26.6347 26.0604 26.1834V24.9936H34.1836V26.1834C34.1836 26.6347 34.5528 27.0039 35.0041 27.0039C35.4554 27.0039 35.8246 26.6347 35.8246 26.1834V24.9936H43.8658V26.1834C43.8658 26.6347 44.235 27.0039 44.6863 27.0039C45.1376 27.0039 45.5069 26.6347 45.5069 26.1834V24.9936H47.4843C48.3951 24.9936 49.1172 25.7731 49.1172 26.6757V45.7529Z" fill="#333333" />
    <path d="M32.8458 30.3274H31.4099C30.9586 30.3274 30.5894 30.6966 30.5894 31.1479C30.5894 31.5992 30.9586 31.9684 31.4099 31.9684H32.8458C33.2971 31.9684 33.6663 31.5992 33.6663 31.1479C33.6663 30.6966 33.2971 30.3274 32.8458 30.3274Z" fill="#333333" />
    <path d="M38.5572 30.3274H37.1213C36.67 30.3274 36.3008 30.6966 36.3008 31.1479C36.3008 31.5992 36.67 31.9684 37.1213 31.9684H38.5572C39.0085 31.9684 39.3777 31.5992 39.3777 31.1479C39.3777 30.6966 39.0167 30.3274 38.5572 30.3274Z" fill="#333333" />
    <path d="M44.317 30.3274H42.8811C42.4298 30.3274 42.0605 30.6966 42.0605 31.1479C42.0605 31.5992 42.4298 31.9684 42.8811 31.9684H44.317C44.7683 31.9684 45.1375 31.5992 45.1375 31.1479C45.1375 30.6966 44.7683 30.3274 44.317 30.3274Z" fill="#333333" />
    <path d="M32.8458 35.991H31.4099C30.9586 35.991 30.5894 36.3602 30.5894 36.8115C30.5894 37.2628 30.9586 37.632 31.4099 37.632H32.8458C33.2971 37.632 33.6663 37.2628 33.6663 36.8115C33.6663 36.3602 33.2971 35.991 32.8458 35.991Z" fill="#333333" />
    <path d="M27.0942 35.991H25.6501C25.1988 35.991 24.8296 36.3602 24.8296 36.8115C24.8296 37.2628 25.1988 37.632 25.6501 37.632H27.086C27.5373 37.632 27.9066 37.2628 27.9066 36.8115C27.9066 36.3602 27.5455 35.991 27.0942 35.991Z" fill="#333333" />
    <path d="M38.5572 35.991H37.1213C36.67 35.991 36.3008 36.3602 36.3008 36.8115C36.3008 37.2628 36.67 37.632 37.1213 37.632H38.5572C39.0085 37.632 39.3777 37.2628 39.3777 36.8115C39.3777 36.3602 39.0167 35.991 38.5572 35.991Z" fill="#333333" />
    <path d="M44.3165 35.991H42.8806C42.4293 35.991 42.0601 36.3602 42.0601 36.8115C42.0601 37.2628 42.4293 37.632 42.8806 37.632H44.3165C44.7678 37.632 45.137 37.2628 45.137 36.8115C45.137 36.3602 44.7678 35.991 44.3165 35.991Z" fill="#333333" />
    <path d="M32.8458 41.567H31.4099C30.9586 41.567 30.5894 41.9363 30.5894 42.3875C30.5894 42.8388 30.9586 43.2081 31.4099 43.2081H32.8458C33.2971 43.2081 33.6663 42.8388 33.6663 42.3875C33.6663 41.9363 33.2971 41.567 32.8458 41.567Z" fill="#333333" />
    <path d="M27.0942 41.567H25.6501C25.1988 41.567 24.8296 41.9363 24.8296 42.3875C24.8296 42.8388 25.1988 43.2081 25.6501 43.2081H27.086C27.5373 43.2081 27.9066 42.8388 27.9066 42.3875C27.9066 41.9363 27.5455 41.567 27.0942 41.567Z" fill="#333333" />
    <path d="M38.5572 41.567H37.1213C36.67 41.567 36.3008 41.9363 36.3008 42.3875C36.3008 42.8388 36.67 43.2081 37.1213 43.2081H38.5572C39.0085 43.2081 39.3777 42.8388 39.3777 42.3875C39.3777 41.9363 39.0167 41.567 38.5572 41.567Z" fill="#333333" />
</svg>
